<svg width="15" height="24" viewBox="0 0 15 24" fill="none" xmlns="http://www.w3.org/2000/svg">
<path d="M15 4.8C15 6.984 13.5692 8.892 11.5385 9.432V18C11.5385 19.5913 10.9306 21.1174 9.84869 22.2426C8.76675 23.3679 7.29933 24 5.76923 24C4.23914 24 2.77171 23.3679 1.68977 22.2426C0.607828 21.1174 0 19.5913 0 18V12L5.76923 18H2.30769C2.30769 18.9548 2.67239 19.8705 3.32155 20.5456C3.97072 21.2207 4.85117 21.6 5.76923 21.6C6.68729 21.6 7.56774 21.2207 8.21691 20.5456C8.86607 19.8705 9.23077 18.9548 9.23077 18V9.432C7.18846 8.88 5.76923 6.96 5.76923 4.764C5.76923 2.112 7.84615 0 10.3846 0C12.9462 0 15 2.148 15 4.8ZM10.3846 7.2C10.9967 7.2 11.5836 6.94714 12.0164 6.49706C12.4492 6.04697 12.6923 5.43652 12.6923 4.8C12.6923 4.16348 12.4492 3.55303 12.0164 3.10294C11.5836 2.65286 10.9967 2.4 10.3846 2.4C9.77258 2.4 9.18561 2.65286 8.75283 3.10294C8.32005 3.55303 8.07692 4.16348 8.07692 4.8C8.07692 5.43652 8.32005 6.04697 8.75283 6.49706C9.18561 6.94714 9.77258 7.2 10.3846 7.2Z" fill="black"/>
</svg>