<svg width="80" height="80" viewBox="0 0 80 80" fill="none" xmlns="http://www.w3.org/2000/svg">
<path d="M43.3333 43.3333H36.6667V23.3333H43.3333V43.3333ZM43.3333 56.6667H36.6667V50H43.3333V56.6667ZM40 6.66666C35.6226 6.66666 31.2881 7.52886 27.2439 9.20401C23.1997 10.8792 19.5251 13.3345 16.4298 16.4298C10.1786 22.681 6.66667 31.1594 6.66667 40C6.66667 48.8405 10.1786 57.319 16.4298 63.5702C19.5251 66.6655 23.1997 69.1208 27.2439 70.796C31.2881 72.4711 35.6226 73.3333 40 73.3333C48.8406 73.3333 57.319 69.8214 63.5702 63.5702C69.8214 57.319 73.3333 48.8405 73.3333 40C73.3333 35.6226 72.4711 31.2881 70.796 27.2439C69.1208 23.1997 66.6655 19.5251 63.5702 16.4298C60.4749 13.3345 56.8003 10.8792 52.7561 9.20401C48.7119 7.52886 44.3774 6.66666 40 6.66666Z" fill="#EA0B0B"/>
</svg>